# xmcd
#
# Track frame offsets:
# 150
# 26978
# 46230
# 62423
# 77393
# 104149
# 124294
# 147919
# 169825
#
# Disc length: 2379 seconds
#
# Revision: 1
# Processed by: cddbd v1.5PL3 Copyright (c) Steve Scherf et al.
# Submitted via: Axialis_AX_CDPlayer 2.6
#
DISCID=7a094909
DTITLE=Taxi Chain - Smarten Up!
DYEAR=2004
DGENRE=Country
TTITLE0=Memphis
TTITLE1=Smarten Up! (Road to Boston/Mickey Chewing Bubblegum/Terry Teahan's)
TTITLE2=James Brown Ate My Bagpipe
TTITLE3=Cut Me a Key
TTITLE4=Buck a Joy
TTITLE5=Tandoori Mustache
TTITLE6=It's Your Birthday
TTITLE7=Zimbobby
TTITLE8=Memphis (Reprise)
EXTD=YEAR: 2004
EXTT0=
EXTT1=
EXTT2=
EXTT3=
EXTT4=
EXTT5=
EXTT6=
EXTT7=
EXTT8=
PLAYORDER=
